<?xml version="1.0" encoding="UTF-8"?>
<svg version="1.1" xmlns="http://www.w3.org/2000/svg" width="500" height="136">
<path d="M0 0 C165 0 330 0 500 0 C500 44.88 500 89.76 500 136 C335 136 170 136 0 136 C0 91.12 0 46.24 0 0 Z " fill="#F9FEFE" transform="translate(0,0)"/>
<path d="M0 0 C3.16115776 1.36983503 3.9927092 1.9890638 6 5 C6 5.99 6 6.98 6 8 C6.66 8 7.32 8 8 8 C8.33 8.99 8.66 9.98 9 11 C9.33 9.68 9.66 8.36 10 7 C14.29 7 18.58 7 23 7 C23 29.11 23 51.22 23 74 C20.36 74 17.72 74 15 74 C14.505 75.98 14.505 75.98 14 78 C12.39592672 78.02708567 10.7917215 78.04643483 9.1875 78.0625 C7.84751953 78.07990234 7.84751953 78.07990234 6.48046875 78.09765625 C4 78 4 78 1 77 C0.13375 77.2165625 0.13375 77.2165625 -0.75 77.4375 C-3.86926021 78.21731505 -6.80038803 78.12074007 -10 78 C-11.73956658 76.26043342 -11.37190386 73.8063378 -11.5625 71.4375 C-11.68818359 69.91962891 -11.68818359 69.91962891 -11.81640625 68.37109375 C-11.87699219 67.58863281 -11.93757813 66.80617188 -12 66 C-14.64 66 -17.28 66 -20 66 C-20 46.53 -20 27.06 -20 7 C-17.03 7.495 -17.03 7.495 -14 8 C-12.32656552 7.70250054 -10.65694085 7.37872934 -9 7 C-7.18884044 8.81115956 -7.61800552 11.61278227 -7.4375 14.0625 C-7.35371094 15.16722656 -7.26992187 16.27195312 -7.18359375 17.41015625 C-7.12300781 18.26480469 -7.06242187 19.11945312 -7 20 C-6.91363281 19.14277344 -6.82726562 18.28554688 -6.73828125 17.40234375 C-5.84919737 10.16732173 -4.85911256 5.49846947 0 0 Z " fill="#A3EFF2" transform="translate(79,31)"/>
<path d="M0 0 C2.97813753 1.02694398 3.95791972 1.93454179 5.6875 4.625 C8.78166905 12.5814347 8.29110172 21.57330599 8.5625 30 C8.60568359 31.25167969 8.64886719 32.50335938 8.69335938 33.79296875 C8.79878017 36.86188523 8.90090342 39.93087389 9 43 C9.33 42.34 9.66 41.68 10 41 C13.26535828 42.08845276 13.74013142 42.61239684 15.625 45.3125 C16.05039063 45.90675781 16.47578125 46.50101563 16.9140625 47.11328125 C18.05332391 49.09264549 18.64459714 50.74751433 19 53 C17.33657163 54.66342837 15.2174291 54.36048097 12.9375 54.5625 C12.01839844 54.64628906 11.09929687 54.73007813 10.15234375 54.81640625 C9.44207031 54.87699219 8.73179688 54.93757813 8 55 C7.67 56.98 7.34 58.96 7 61 C6.34 61 5.68 61 5 61 C5.00523682 59.78940918 5.01047363 58.57881836 5.01586914 57.33154297 C5.03401681 52.82520288 5.04546767 48.318866 5.05493164 43.8125 C5.05994955 41.86490332 5.06676534 39.91731039 5.07543945 37.96972656 C5.08761652 35.16470411 5.09325383 32.35973163 5.09765625 29.5546875 C5.10281754 28.68883026 5.10797882 27.82297302 5.11329651 26.93087769 C5.11370419 22.5027179 4.89613596 18.35974798 4 14 C1.69 13.67 -0.62 13.34 -3 13 C-3.02511899 17.44335586 -3.04305342 21.88667177 -3.05493164 26.33007812 C-3.05989458 27.83496828 -3.0666671 29.33985379 -3.07543945 30.84472656 C-3.33469329 45.47460581 -3.33469329 45.47460581 -2 60 C-1.34 60.33 -0.68 60.66 0 61 C0 56.71 0 52.42 0 48 C0.33 48 0.66 48 1 48 C1 53.28 1 58.56 1 64 C1.99 64 2.98 64 4 64 C3.6875 66.875 3.6875 66.875 3 70 C1.515 70.99 1.515 70.99 0 72 C-2.56687367 68.1496895 -1.83288724 66.41430237 -1 62 C-2.98 62 -4.96 62 -7 62 C-6.18836991 63.95869403 -5.37566899 65.91694436 -4.5625 67.875 C-3.88380859 69.51082031 -3.88380859 69.51082031 -3.19140625 71.1796875 C-2.50456537 72.80558624 -1.78934113 74.42131774 -1 76 C-4.3 76 -7.6 76 -11 76 C-11.33 72.7 -11.66 69.4 -12 66 C-14.64 66 -17.28 66 -20 66 C-20 46.53 -20 27.06 -20 7 C-17.03 7.495 -17.03 7.495 -14 8 C-12.32656552 7.70250054 -10.65694085 7.37872934 -9 7 C-7.18884044 8.81115956 -7.61800552 11.61278227 -7.4375 14.0625 C-7.35371094 15.16722656 -7.26992187 16.27195312 -7.18359375 17.41015625 C-7.12300781 18.26480469 -7.06242187 19.11945312 -7 20 C-6.91363281 19.14277344 -6.82726562 18.28554688 -6.73828125 17.40234375 C-5.84919737 10.16732173 -4.85911256 5.49846947 0 0 Z " fill="#266F72" transform="translate(79,31)"/>
<path d="M0 0 C3.63 0 7.26 0 11 0 C11 21.78 11 43.56 11 66 C8.03 66 5.06 66 2 66 C2 66.99 2 67.98 2 69 C-1.3 69 -4.6 69 -8 69 C-7.54625 68.319375 -7.0925 67.63875 -6.625 66.9375 C-4.83163514 63.69564814 -3.91246131 60.5796559 -3 57 C-2.01 57 -1.02 57 0 57 C0 54.69 0 52.38 0 50 C4.95 49.505 4.95 49.505 10 49 C9.22134464 42.96542097 8.23582725 39.99686849 3.9375 35.65625 C-1.48147514 29.10406151 -0.9046129 22.40045862 -0.5 14.375 C-0.4597787 12.97536349 -0.42329322 11.57561442 -0.390625 10.17578125 C-0.29697384 6.78092681 -0.16592845 3.39196043 0 0 Z " fill="#061315" transform="translate(90,38)"/>
<path d="M0 0 C2.93423195 1.79646854 4.47205355 2.9441071 6 6 C6.52940021 11.31135952 6.66363629 15.67272741 4.25 20.5 C0.87843125 24.2461875 -1.89298011 26.63899388 -7.05078125 27.23828125 C-12.56651788 27.41928124 -15.63540271 26.70990769 -20 23 C-21.87601038 19.24797924 -21.52484891 15.08547163 -21 11 C-19.30893565 6.64842492 -17.04564661 3.77815561 -13.3125 1 C-8.79518363 -0.36371815 -4.67608389 -0.724793 0 0 Z " fill="#06080A" transform="translate(175,40)"/>
<path d="M0 0 C1.23234375 -0.02578125 2.4646875 -0.0515625 3.734375 -0.078125 C7.46731737 0.27028295 9.30777465 0.97670943 12.25 3.25 C13.3125 5.625 13.3125 5.625 13.25 8.25 C11.3125 11.0625 11.3125 11.0625 9.25 13.25 C9.765625 13.78625 10.28125 14.3225 10.8125 14.875 C12.25 17.25 12.25 17.25 12.1875 20.3125 C11.09136481 23.74705694 10.28965725 24.43820256 7.25 26.25 C4.95996094 26.59057617 4.95996094 26.59057617 2.484375 26.54296875 C1.59492188 26.53330078 0.70546875 26.52363281 -0.2109375 26.51367188 C-1.13132812 26.48853516 -2.05171875 26.46339844 -3 26.4375 C-3.93585938 26.42396484 -4.87171875 26.41042969 -5.8359375 26.39648438 C-8.14121327 26.36119954 -10.4453106 26.31190281 -12.75 26.25 C-12.18272946 20.24638677 -11.26834945 14.58134209 -9.75 8.75 C-9.57210937 8.03585938 -9.39421875 7.32171875 -9.2109375 6.5859375 C-7.50790444 -0.09910272 -6.85929288 0.08538539 0 0 Z " fill="#06080A" transform="translate(126.75,39.75)"/>
<path d="M0 0 C2.97813753 1.02694398 3.95791972 1.93454179 5.6875 4.625 C8.78166905 12.5814347 8.29110172 21.57330599 8.5625 30 C8.60568359 31.25167969 8.64886719 32.50335938 8.69335938 33.79296875 C8.79878017 36.86188523 8.90090342 39.93087389 9 43 C9.33 42.34 9.66 41.68 10 41 C13.26535828 42.08845276 13.74013142 42.61239684 15.625 45.3125 C16.05039063 45.90675781 16.47578125 46.50101563 16.9140625 47.11328125 C18.05332391 49.09264549 18.64459714 50.74751433 19 53 C17.33657163 54.66342837 15.2174291 54.36048097 12.9375 54.5625 C12.01839844 54.64628906 11.09929687 54.73007813 10.15234375 54.81640625 C9.44207031 54.87699219 8.73179688 54.93757813 8 55 C7.67 56.98 7.34 58.96 7 61 C6.34 61 5.68 61 5 61 C5.00523682 59.78940918 5.01047363 58.57881836 5.01586914 57.33154297 C5.03401681 52.82520288 5.04546767 48.318866 5.05493164 43.8125 C5.05994955 41.86490332 5.06676534 39.91731039 5.07543945 37.96972656 C5.08761652 35.16470411 5.09325383 32.35973163 5.09765625 29.5546875 C5.10281754 28.68883026 5.10797882 27.82297302 5.11329651 26.93087769 C5.11370419 22.5027179 4.89613596 18.35974798 4 14 C1.69 13.67 -0.62 13.34 -3 13 C-3.33 28.84 -3.66 44.68 -4 61 C-4.66 61 -5.32 61 -6 61 C-6 58.69 -6 56.38 -6 54 C-9.63 54 -13.26 54 -17 54 C-17 47.62380323 -15.01379341 46.06973211 -10.75 41.6875 C-10.1725 41.130625 -9.595 40.57375 -9 40 C-9 41.32 -9 42.64 -9 44 C-8.34 44 -7.68 44 -7 44 C-6.98541748 43.00145996 -6.97083496 42.00291992 -6.95581055 40.97412109 C-6.89759932 37.25013394 -6.82036923 33.52673708 -6.73754883 29.80322266 C-6.70440637 28.1952476 -6.67634146 26.58715919 -6.65356445 24.97900391 C-6.61982033 22.65999295 -6.56749806 20.34201069 -6.51171875 18.0234375 C-6.50532883 17.31069672 -6.4989389 16.59795593 -6.49235535 15.86361694 C-6.30381906 9.38431885 -4.0069182 4.96094635 0 0 Z " fill="#070C0F" transform="translate(79,31)"/>
<path d="M0 0 C1.134375 0.020625 2.26875 0.04125 3.4375 0.0625 C4.15364583 2.015625 4.86979167 3.96875 5.5859375 5.921875 C6.42749011 8.03733752 7.39076494 10.04184624 8.4375 12.0625 C8.64246094 11.28003906 8.84742188 10.49757813 9.05859375 9.69140625 C9.32800781 8.67949219 9.59742188 7.66757812 9.875 6.625 C10.14183594 5.61566406 10.40867187 4.60632812 10.68359375 3.56640625 C11.4375 1.0625 11.4375 1.0625 12.4375 0.0625 C14.43708364 0.02169217 16.43795254 0.01995644 18.4375 0.0625 C17.07698216 8.80182638 15.35330102 17.42862338 13.4375 26.0625 C10.4675 26.0625 7.4975 26.0625 4.4375 26.0625 C3.1175 22.1025 1.7975 18.1425 0.4375 14.0625 C-0.5525 18.0225 -1.5425 21.9825 -2.5625 26.0625 C-4.5425 26.0625 -6.5225 26.0625 -8.5625 26.0625 C-8.03568316 20.16215144 -7.13870969 14.38349209 -6.0625 8.5625 C-5.93190186 7.84384766 -5.80130371 7.12519531 -5.66674805 6.38476562 C-4.47565217 0.07852021 -4.47565217 0.07852021 0 0 Z " fill="#06080A" transform="translate(358.5625,39.9375)"/>
<path d="M0 0 C2.31 0 4.62 0 7 0 C7.19335938 0.54269531 7.38671875 1.08539063 7.5859375 1.64453125 C7.84632813 2.35996094 8.10671875 3.07539062 8.375 3.8125 C8.63023437 4.52019531 8.88546875 5.22789063 9.1484375 5.95703125 C10.0265769 8.24773359 10.0265769 8.24773359 12 11 C12.66 11 13.32 11 14 11 C14.09087891 10.06027344 14.09087891 10.06027344 14.18359375 9.1015625 C14.26738281 8.28429688 14.35117187 7.46703125 14.4375 6.625 C14.51871094 5.81289063 14.59992188 5.00078125 14.68359375 4.1640625 C15 2 15 2 16 0 C17.98 0 19.96 0 22 0 C18.38297872 23.61702128 18.38297872 23.61702128 16 26 C13.32941149 26.14115161 10.67567762 26.04247107 8 26 C7.79503906 25.30132812 7.59007812 24.60265625 7.37890625 23.8828125 C6.97478516 22.51769531 6.97478516 22.51769531 6.5625 21.125 C6.29566406 20.22007813 6.02882813 19.31515625 5.75390625 18.3828125 C5.07386174 16.01724619 5.07386174 16.01724619 4 14 C3.01 17.96 2.02 21.92 1 26 C-1.31 26 -3.62 26 -6 26 C-5.37635743 23.16636189 -4.75112186 20.33309041 -4.125 17.5 C-3.95097656 16.70851563 -3.77695312 15.91703125 -3.59765625 15.1015625 C-2.47864527 10.04529067 -1.27766555 5.01857819 0 0 Z " fill="#050608" transform="translate(423,40)"/>
<path d="M0 0 C2.62997963 1.4085464 3.95453596 2.73922395 6 5 C6 5.66 6 6.32 6 7 C3.69 7.66 1.38 8.32 -1 9 C-1.33 8.34 -1.66 7.68 -2 7 C-5.37400578 6.58274322 -5.37400578 6.58274322 -9 7 C-11.2415942 8.86992583 -11.2415942 8.86992583 -12 12 C-11.93358092 15.05527764 -11.54331777 17.9953873 -11 21 C-8.69 21 -6.38 21 -4 21 C-3.67 19.68 -3.34 18.36 -3 17 C-3.99 17 -4.98 17 -6 17 C-6 15.35 -6 13.7 -6 12 C-2.04 12 1.92 12 6 12 C5.48594831 16.96916636 4.76615118 21.29026351 3 26 C2.37351562 25.98839844 1.74703125 25.97679688 1.1015625 25.96484375 C-0.12433594 25.95130859 -0.12433594 25.95130859 -1.375 25.9375 C-2.59316406 25.92009766 -2.59316406 25.92009766 -3.8359375 25.90234375 C-6.04937142 25.85533666 -6.04937142 25.85533666 -8 27 C-10.8125 27.375 -10.8125 27.375 -14 27 C-18.0157443 23.60892703 -19.86004785 21.62344489 -20.3125 16.375 C-20.23362294 11.55473521 -18.77317712 7.91711268 -16 4 C-11.28262601 -0.49273713 -6.25468319 -1.20438074 0 0 Z " fill="#040609" transform="translate(398,40)"/>
<path d="M0 0 C1.1446875 0.3403125 1.1446875 0.3403125 2.3125 0.6875 C4.06703897 5.98153992 4.59701675 10.54852343 4.54296875 16.10546875 C4.54228142 17.27496819 4.54228142 17.27496819 4.5415802 18.46809387 C4.53857747 20.10431454 4.53075111 21.74053286 4.51831055 23.37670898 C4.49997658 25.8781955 4.49780175 28.37931243 4.49804688 30.88085938 C4.4931335 32.47656569 4.48730597 34.07226952 4.48046875 35.66796875 C4.47935593 36.41282028 4.4782431 37.15767181 4.47709656 37.9250946 C4.44611332 41.31415255 4.37070065 44.44745322 3.3125 47.6875 C2.6525 47.6875 1.9925 47.6875 1.3125 47.6875 C1.3125 43.7275 1.3125 39.7675 1.3125 35.6875 C0.3225 35.6875 -0.6675 35.6875 -1.6875 35.6875 C-1.6875 39.9775 -1.6875 44.2675 -1.6875 48.6875 C-2.6775 48.3575 -3.6675 48.0275 -4.6875 47.6875 C-5.47822794 38.29714593 -5.90057732 28.971616 -5.92773438 19.55151367 C-5.93767609 17.46300727 -5.96895822 15.37539645 -6 13.28710938 C-6.00651191 11.94792237 -6.01176944 10.60872854 -6.015625 9.26953125 C-6.0249707 8.07561768 -6.03431641 6.8817041 -6.04394531 5.65161133 C-5.6875 2.6875 -5.6875 2.6875 -4.33496094 0.7565918 C-2.6875 -0.3125 -2.6875 -0.3125 0 0 Z " fill="#FBFCFC" transform="translate(80.6875,43.3125)"/>
<path d="M0 0 C2.05078125 0.03255208 4.1015625 0.06510417 6.15234375 0.09765625 C6.49130643 2.93041578 6.82364069 5.76370286 7.15234375 8.59765625 C7.24773437 9.38914062 7.343125 10.180625 7.44140625 10.99609375 C8.02342257 16.06795029 8.2460146 20.99259484 8.15234375 26.09765625 C5.84234375 26.09765625 3.53234375 26.09765625 1.15234375 26.09765625 C0.82234375 24.77765625 0.49234375 23.45765625 0.15234375 22.09765625 C-2.48765625 22.09765625 -5.12765625 22.09765625 -7.84765625 22.09765625 C-8.17765625 23.41765625 -8.50765625 24.73765625 -8.84765625 26.09765625 C-11.48765625 26.09765625 -14.12765625 26.09765625 -16.84765625 26.09765625 C-16.27851947 22.16781916 -15.12622397 19.57053457 -12.94140625 16.26953125 C-12.36261719 15.3878125 -11.78382813 14.50609375 -11.1875 13.59765625 C-10.58035156 12.69015625 -9.97320312 11.78265625 -9.34765625 10.84765625 C-8.74050781 9.9246875 -8.13335937 9.00171875 -7.5078125 8.05078125 C-2.27119193 0.12004186 -2.27119193 0.12004186 0 0 Z " fill="#07080B" transform="translate(247.84765625,39.90234375)"/>
<path d="M0 0 C2.06183633 -0.08150744 4.12461349 -0.1394194 6.1875 -0.1875 C7.33605469 -0.22230469 8.48460937 -0.25710937 9.66796875 -0.29296875 C13.57912447 0.0509195 16.2059851 1.2059851 19 4 C19.46249691 8.62496911 19.68582686 10.91213671 17.1875 14.875 C12.71635546 17.85576303 8.27039318 18.38158259 3 19 C2.34 21.31 1.68 23.62 1 26 C-1.31 26 -3.62 26 -6 26 C-5.3814845 22.79038175 -4.75402356 19.58257402 -4.125 16.375 C-3.95097656 15.47136719 -3.77695313 14.56773438 -3.59765625 13.63671875 C-2.67623333 8.96135062 -1.6538714 4.48482245 0 0 Z " fill="#040709" transform="translate(214,40)"/>
<path d="M0 0 C3.125 1.5 3.125 1.5 5 3 C4.67 4.32 4.34 5.64 4 7 C1.6875 7.625 1.6875 7.625 -1 8 C-1.99 7.34 -2.98 6.68 -4 6 C-5.32 6 -6.64 6 -8 6 C-8.33 6.99 -8.66 7.98 -9 9 C-8.31292969 9.17015625 -7.62585938 9.3403125 -6.91796875 9.515625 C-6.01691406 9.75796875 -5.11585938 10.0003125 -4.1875 10.25 C-2.84751953 10.59804688 -2.84751953 10.59804688 -1.48046875 10.953125 C1.43679814 12.18434945 2.47414779 13.24837985 4 16 C3.89285714 22.10714286 3.89285714 22.10714286 1.125 24.875 C-3.52206639 27.33521162 -7.85230133 27.52527537 -13 27 C-16.5625 25.5 -16.5625 25.5 -19 24 C-18.6478759 21.35906923 -18.34271564 20.28151642 -16.25 18.5625 C-14 18 -14 18 -11.4375 19.375 C-10.633125 19.91125 -9.82875 20.4475 -9 21 C-8.01 21 -7.02 21 -6 21 C-5.67 19.68 -5.34 18.36 -5 17 C-5.62648437 16.81824219 -6.25296875 16.63648437 -6.8984375 16.44921875 C-7.71570313 16.19785156 -8.53296875 15.94648437 -9.375 15.6875 C-10.18710938 15.44386719 -10.99921875 15.20023438 -11.8359375 14.94921875 C-14 14 -14 14 -16 11 C-16.5 7.5625 -16.5 7.5625 -16 4 C-11.42272688 -0.69772768 -6.19598325 -0.8969227 0 0 Z " fill="#05080B" transform="translate(202,40)"/>
<path d="M0 0 C0.74886475 0.00523682 1.49772949 0.01047363 2.26928711 0.01586914 C3.07817383 0.0190918 3.88706055 0.02231445 4.72045898 0.02563477 C5.5705957 0.03401367 6.42073242 0.04239258 7.29663086 0.05102539 C8.15063477 0.05553711 9.00463867 0.06004883 9.88452148 0.06469727 C12.00108749 0.07652166 14.11761771 0.0944577 16.23413086 0.11352539 C16.56413086 0.77352539 16.89413086 1.43352539 17.23413086 2.11352539 C16.57413086 3.43352539 15.91413086 4.75352539 15.23413086 6.11352539 C11.27413086 6.11352539 7.31413086 6.11352539 3.23413086 6.11352539 C3.23413086 7.76352539 3.23413086 9.41352539 3.23413086 11.11352539 C8.67913086 10.61852539 8.67913086 10.61852539 14.23413086 10.11352539 C13.90413086 12.09352539 13.57413086 14.07352539 13.23413086 16.11352539 C9.60413086 16.11352539 5.97413086 16.11352539 2.23413086 16.11352539 C1.24413086 18.58852539 1.24413086 18.58852539 0.23413086 21.11352539 C4.85413086 21.11352539 9.47413086 21.11352539 14.23413086 21.11352539 C13.90413086 22.76352539 13.57413086 24.41352539 13.23413086 26.11352539 C6.30413086 26.11352539 -0.62586914 26.11352539 -7.76586914 26.11352539 C-6.63919603 17.10014054 -6.63919603 17.10014054 -5.82836914 13.64868164 C-5.65563477 12.91198242 -5.48290039 12.1752832 -5.30493164 11.41625977 C-5.12704102 10.67698242 -4.94915039 9.93770508 -4.76586914 9.17602539 C-4.58797852 8.40967773 -4.41008789 7.64333008 -4.22680664 6.85375977 C-2.64016425 0.16973267 -2.64016425 0.16973267 0 0 Z " fill="#090C0F" transform="translate(451.765869140625,39.886474609375)"/>
<path d="M0 0 C0.74362793 0.01047363 1.48725586 0.02094727 2.25341797 0.03173828 C3.46191406 0.04140625 3.46191406 0.04140625 4.69482422 0.05126953 C5.95746094 0.07640625 5.95746094 0.07640625 7.24560547 0.10205078 C8.51984375 0.11558594 8.51984375 0.11558594 9.81982422 0.12939453 C11.9202043 0.15299431 14.02043991 0.18886595 16.12060547 0.22705078 C15.79060547 2.20705078 15.46060547 4.18705078 15.12060547 6.22705078 C9.18060547 6.72205078 9.18060547 6.72205078 3.12060547 7.22705078 C2.79060547 8.21705078 2.46060547 9.20705078 2.12060547 10.22705078 C5.75060547 10.22705078 9.38060547 10.22705078 13.12060547 10.22705078 C12.79060547 12.20705078 12.46060547 14.18705078 12.12060547 16.22705078 C8.49060547 16.22705078 4.86060547 16.22705078 1.12060547 16.22705078 C0.79060547 17.87705078 0.46060547 19.52705078 0.12060547 21.22705078 C4.41060547 21.22705078 8.70060547 21.22705078 13.12060547 21.22705078 C12.79060547 22.87705078 12.46060547 24.52705078 12.12060547 26.22705078 C5.19060547 26.22705078 -1.73939453 26.22705078 -8.87939453 26.22705078 C-4.9122907 0.59345679 -4.9122907 0.59345679 0 0 Z " fill="#06080A" transform="translate(332.87939453125,39.77294921875)"/>
<path d="M0 0 C0.74886475 0.00523682 1.49772949 0.01047363 2.26928711 0.01586914 C3.07817383 0.0190918 3.88706055 0.02231445 4.72045898 0.02563477 C5.5705957 0.03401367 6.42073242 0.04239258 7.29663086 0.05102539 C8.15063477 0.05553711 9.00463867 0.06004883 9.88452148 0.06469727 C12.00108749 0.07652166 14.11761771 0.0944577 16.23413086 0.11352539 C16.27685186 1.77964444 16.27476918 3.44735424 16.23413086 5.11352539 C15.23413086 6.11352539 15.23413086 6.11352539 12.51147461 6.21118164 C10.85825195 6.1937793 10.85825195 6.1937793 9.17163086 6.17602539 C8.0669043 6.16700195 6.96217773 6.15797852 5.82397461 6.14868164 C4.96932617 6.13708008 4.11467773 6.12547852 3.23413086 6.11352539 C3.23413086 7.10352539 3.23413086 8.09352539 3.23413086 9.11352539 C6.63975938 9.89195477 9.74178842 10.2133066 13.23413086 10.11352539 C13.27685186 11.77964444 13.27476918 13.44735424 13.23413086 15.11352539 C12.90413086 15.44352539 12.57413086 15.77352539 12.23413086 16.11352539 C10.37640924 16.02368238 8.52165101 15.86740679 6.67163086 15.67602539 C5.6597168 15.57418945 4.64780273 15.47235352 3.60522461 15.36743164 C2.82276367 15.28364258 2.04030273 15.19985352 1.23413086 15.11352539 C0.90413086 17.09352539 0.57413086 19.07352539 0.23413086 21.11352539 C4.52413086 21.11352539 8.81413086 21.11352539 13.23413086 21.11352539 C13.23413086 22.76352539 13.23413086 24.41352539 13.23413086 26.11352539 C5.97413086 26.11352539 -1.28586914 26.11352539 -8.76586914 26.11352539 C-7.79100721 21.96663567 -6.81120422 17.82102552 -5.82836914 13.67602539 C-5.55057617 12.49202148 -5.2727832 11.30801758 -4.98657227 10.08813477 C-4.7190918 8.96342773 -4.45161133 7.8387207 -4.17602539 6.67993164 C-3.92989502 5.63780518 -3.68376465 4.59567871 -3.43017578 3.52197266 C-2.50311868 0.16092219 -2.50311868 0.16092219 0 0 Z " fill="#040608" transform="translate(295.765869140625,39.886474609375)"/>
<path d="M0 0 C0.99 0.33 1.98 0.66 3 1 C4.66965451 0.68197057 6.33678518 0.35015049 8 0 C9.81115956 1.81115956 9.38199448 4.61278227 9.5625 7.0625 C9.64628906 8.16722656 9.73007813 9.27195312 9.81640625 10.41015625 C9.87699219 11.26480469 9.93757813 12.11945312 10 13 C10.33 13 10.66 13 11 13 C11.02901394 16.4374823 11.04680335 19.87493312 11.0625 23.3125 C11.07506836 24.77719727 11.07506836 24.77719727 11.08789062 26.27148438 C11.09111328 27.20927734 11.09433594 28.14707031 11.09765625 29.11328125 C11.10289307 29.97735596 11.10812988 30.84143066 11.11352539 31.73168945 C11 34 11 34 10 37 C9.34 37 8.68 37 8 37 C7.505 35.515 7.505 35.515 7 34 C6.401875 34.99 5.80375 35.98 5.1875 37 C4.465625 37.99 3.74375 38.98 3 40 C2.01 40 1.02 40 0 40 C0 26.8 0 13.6 0 0 Z " fill="#56FBFC" transform="translate(62,38)"/>
<path d="M0 0 C2.18767059 1.91421177 2.70488433 2.89721517 3 5.75 C0.69 6.41 -1.62 7.07 -4 7.75 C-4.33 7.09 -4.66 6.43 -5 5.75 C-7.87364791 5.33253392 -7.87364791 5.33253392 -11 5.75 C-13.43307639 8.50748658 -13.96281028 10.27583101 -14.25 13.9375 C-14.17746109 16.70029852 -14.17746109 16.70029852 -13 18.75 C-10.67975596 19.76453953 -10.67975596 19.76453953 -8 19.75 C-5.66545339 17.91641665 -5.66545339 17.91641665 -4 15.75 C-2.35 16.41 -0.7 17.07 1 17.75 C0.77069943 20.96020798 -0.06193835 21.80574452 -2.5 24 C-6.87671311 26.18835655 -10.19514656 26.61658964 -15 25.75 C-20.64028777 22.82913669 -20.64028777 22.82913669 -22 18.75 C-23.05564797 12.09540899 -21.51184159 8.05104592 -17.703125 2.59765625 C-12.99608329 -2.50883625 -6.132439 -2.55518292 0 0 Z " fill="#04070A" transform="translate(284,41.25)"/>
<path d="M0 0 C5.625 -0.25 5.625 -0.25 9 2 C10.1875 4.125 10.1875 4.125 11 6 C11.66 4.02 12.32 2.04 13 0 C15.64 0 18.28 0 21 0 C21.33 1.65 21.66 3.3 22 5 C22.66 4.67 23.32 4.34 24 4 C24.65213292 1.97536745 24.65213292 1.97536745 25 0 C26.32 0.33 27.64 0.66 29 1 C29 1.66 29 2.32 29 3 C29.66 3 30.32 3 31 3 C31.33 2.01 31.66 1.02 32 0 C32.99 0.33 33.98 0.66 35 1 C35 2.98 35 4.96 35 7 C34.01 6.01 33.02 5.02 32 4 C31.67 6.64 31.34 9.28 31 12 C30.34 12 29.68 12 29 12 C28.34 10.68 27.68 9.36 27 8 C26.34 9.65 25.68 11.3 25 13 C24.34 13 23.68 13 23 13 C22.67 12.01 22.34 11.02 22 10 C21.29875 10.66 20.5975 11.32 19.875 12 C16.56539771 14.30233203 14.93774177 14.36630156 11 14 C10.67 12.68 10.34 11.36 10 10 C9.113125 10.66 8.22625 11.32 7.3125 12 C2.68159204 14.7960199 2.68159204 14.7960199 -1 14 C-3.65315971 11.62130509 -3.98103345 10.32875347 -4.1875 6.75 C-4.125625 5.8425 -4.06375 4.935 -4 4 C-3.34 3.67 -2.68 3.34 -2 3 C-1.67 5.31 -1.34 7.62 -1 10 C1.97 10.495 1.97 10.495 5 11 C5 8.03 5 5.06 5 2 C3.35 1.67 1.7 1.34 0 1 C0 0.67 0 0.34 0 0 Z " fill="#B8F8FA" transform="translate(158,81)"/>
<path d="M0 0 C0.33 0 0.66 0 1 0 C1 6.93 1 13.86 1 21 C-1.97 21 -4.94 21 -8 21 C-8 21.99 -8 22.98 -8 24 C-11.3 24 -14.6 24 -18 24 C-17.54625 23.319375 -17.0925 22.63875 -16.625 21.9375 C-14.83163514 18.69564814 -13.91246131 15.5796559 -13 12 C-12.01 12 -11.02 12 -10 12 C-10 9.69 -10 7.38 -10 5 C-6.7 4.67 -3.4 4.34 0 4 C0 2.68 0 1.36 0 0 Z " fill="#03090C" transform="translate(100,83)"/>
<path d="M0 0 C0.33 0 0.66 0 1 0 C0.98839844 0.8564209 0.97679688 1.7128418 0.96484375 2.59521484 C0.94045332 5.82041325 0.95241897 9.0430115 0.98779297 12.26806641 C0.99582721 13.65477567 0.9900122 15.04164572 0.96923828 16.42822266 C0.86706475 23.87613538 1.0363132 29.69207008 6 35.65625 C6.721875 36.38392578 7.44375 37.11160156 8.1875 37.86132812 C11.16423473 41.3737468 11 44.51030949 11 49 C7.37 48.67 3.74 48.34 0 48 C0 49.98 0 51.96 0 54 C-2.97 54.99 -5.94 55.98 -9 57 C-9 51.72 -9 46.44 -9 41 C-8.34 41 -7.68 41 -7 41 C-7 44.96 -7 48.92 -7 53 C-5.68 53.33 -4.36 53.66 -3 54 C-3.020625 53.030625 -3.04125 52.06125 -3.0625 51.0625 C-3 48 -3 48 -2 47 C-0.31816052 46.76712992 1.3712416 46.58735834 3.0625 46.4375 C3.98160156 46.35371094 4.90070313 46.26992187 5.84765625 46.18359375 C6.55792969 46.12300781 7.26820312 46.06242187 8 46 C6.07776117 40.8403063 4.19813062 37.74427866 0 34 C-0.33 34.99 -0.66 35.98 -1 37 C-3.00503509 34.99496491 -2.25588663 30.99974556 -2.31640625 28.24609375 C-2.33718735 27.47064713 -2.35796844 26.6952005 -2.37937927 25.89625549 C-2.44495802 23.41009692 -2.50379799 20.92382955 -2.5625 18.4375 C-2.60567733 16.75584796 -2.64929136 15.07420706 -2.69335938 13.39257812 C-2.80064779 9.26183129 -2.90189132 5.13097464 -3 1 C-2.34 1.99 -1.68 2.98 -1 4 C-0.67 2.68 -0.34 1.36 0 0 Z " fill="#13FCFE" transform="translate(89,38)"/>
<path d="M0 0 C1.32 0 2.64 0 4 0 C4 3.3 4 6.6 4 10 C4.99 9.67 5.98 9.34 7 9 C7.80563638 6.89415562 7.80563638 6.89415562 8.1875 4.4375 C8.34605469 3.61121094 8.50460937 2.78492187 8.66796875 1.93359375 C8.83232422 0.97646484 8.83232422 0.97646484 9 0 C15.625 -0.25 15.625 -0.25 19 2 C18.49362019 4.02551922 17.98687821 6.04811323 17.4375 8.0625 C16.88986956 10.15667366 16.88986956 10.15667366 17 13 C16.01 12.67 15.02 12.34 14 12 C14 10.68 14 9.36 14 8 C12.35 8 10.7 8 9 8 C8.67 9.65 8.34 11.3 8 13 C6.35 13.33 4.7 13.66 3 14 C2.67 12.35 2.34 10.7 2 9 C0.02 9.33 -1.96 9.66 -4 10 C-4.33 11.32 -4.66 12.64 -5 14 C-6.81242052 14.02687279 -8.62495233 14.04633715 -10.4375 14.0625 C-11.44683594 14.07410156 -12.45617187 14.08570312 -13.49609375 14.09765625 C-16 14 -16 14 -17 13 C-17.04080783 11.00041636 -17.04254356 8.99954746 -17 7 C-16.34 7 -15.68 7 -15 7 C-15 8.32 -15 9.64 -15 11 C-10.92988351 11.65342151 -10.92988351 11.65342151 -7 11 C-3.93498189 7.76506617 -1.98009251 3.96018502 0 0 Z " fill="#167073" transform="translate(364,81)"/>
<path d="M0 0 C2.31 0 4.62 0 7 0 C6.35343144 8.89031769 4.12977433 17.37193748 2 26 C-0.64 26 -3.28 26 -6 26 C-5.19021299 22.22857875 -4.37670608 18.45796948 -3.5625 14.6875 C-3.33240234 13.61564453 -3.10230469 12.54378906 -2.86523438 11.43945312 C-2.64287109 10.41142578 -2.42050781 9.38339844 -2.19140625 8.32421875 C-1.98717041 7.37635498 -1.78293457 6.42849121 -1.57250977 5.4519043 C-1 3 -1 3 0 0 Z " fill="#0B0C0E" transform="translate(411,40)"/>
<path d="M0 0 C2.31 0 4.62 0 7 0 C6.35215814 5.94650633 5.28016565 11.67387483 3.9375 17.5 C3.75123047 18.32242188 3.56496094 19.14484375 3.37304688 19.9921875 C2.91879115 21.9955717 2.45988401 23.9979003 2 26 C-0.31 26 -2.62 26 -5 26 C-3.77696248 17.20851853 -2.11620945 8.62002651 0 0 Z " fill="#040507" transform="translate(146,40)"/>
<path d="M0 0 C3.3 0.33 6.6 0.66 10 1 C10 3.31 10 5.62 10 8 C10.99 8 11.98 8 13 8 C13.27714844 8.69867188 13.55429688 9.39734375 13.83984375 10.1171875 C14.20207031 11.02726562 14.56429687 11.93734375 14.9375 12.875 C15.29714844 13.77992187 15.65679687 14.68484375 16.02734375 15.6171875 C16.94901262 17.96137667 16.94901262 17.96137667 18 20 C14.7 20 11.4 20 8 20 C7.67 16.7 7.34 13.4 7 10 C4.69 10 2.38 10 0 10 C0 6.7 0 3.4 0 0 Z " fill="#040E10" transform="translate(60,87)"/>
<path d="M0 0 C2.40346379 2.40346379 2.32083747 3.13900195 2.375 6.4375 C2.27301905 10.66631005 2.27301905 10.66631005 0.3125 13.0625 C-2.30085596 14.12196863 -4.20508215 14.23290982 -7 14 C-9.60018816 10.09971775 -9.15085514 6.52565431 -9 2 C-9.66 2 -10.32 2 -11 2 C-12.86551426 5.58752742 -14.42535928 9.27812193 -16 13 C-16.66 13 -17.32 13 -18 13 C-17.83436082 8.11364427 -17.70127566 5.88582189 -14.625 2 C-10.3631208 -1.08726371 -5.01784556 -0.77891393 0 0 Z " fill="#2BB1B1" transform="translate(311,81)"/>
<path d="M0 0 C1.7015625 0.2475 1.7015625 0.2475 3.4375 0.5 C5.95000583 4.26875875 5.96766086 6.03150134 5.4375 10.5 C3.97756686 12.82978877 2.37630985 14.5127199 0.4375 16.5 C-4.3125 15.75 -4.3125 15.75 -6.5625 13.5 C-6.9080873 9.28383497 -6.90925002 6.47905888 -5.5 2.5 C-3.5625 0.5 -3.5625 0.5 0 0 Z " fill="#D7FAFB" transform="translate(168.5625,45.5)"/>
<path d="M0 0 C0.11647041 4.54144994 0.18734502 9.08251394 0.25 13.625 C0.28351563 14.91019531 0.31703125 16.19539063 0.3515625 17.51953125 C0.47473534 29.40571066 0.47473534 29.40571066 -4 34 C-4.33 34 -4.66 34 -5 34 C-5 23.11 -5 12.22 -5 1 C-3 0 -3 0 0 0 Z " fill="#020305" transform="translate(70,38)"/>
<path d="M0 0 C1.26238051 2.52476102 0.86824786 3.4795922 0.29296875 6.2109375 C0.0309668 7.46003906 0.0309668 7.46003906 -0.23632812 8.734375 C-0.5215332 10.04148437 -0.5215332 10.04148437 -0.8125 11.375 C-0.99103516 12.23867188 -1.16957031 13.10234375 -1.35351562 13.9921875 C-2.20397535 17.97123371 -3.0515624 21.39950398 -5 25 C-2.69 25 -0.38 25 2 25 C2.66 20.71 3.32 16.42 4 12 C4.66 12.33 5.32 12.66 6 13 C5.69147815 14.958964 5.3780582 16.91715713 5.0625 18.875 C4.80146484 20.51082031 4.80146484 20.51082031 4.53515625 22.1796875 C4 25 4 25 3 27 C-3.625 27.25 -3.625 27.25 -7 25 C-7.66 25.66 -8.32 26.32 -9 27 C-12.625 27.125 -12.625 27.125 -16 27 C-16.33 26.34 -16.66 25.68 -17 25 C-14.36 25 -11.72 25 -9 25 C-8.67 22.36 -8.34 19.72 -8 17 C-7.34 17 -6.68 17 -6 17 C-5.896875 15.845 -5.79375 14.69 -5.6875 13.5 C-5.12165338 8.96514352 -3.83533874 5.18457233 -2 1 C-1.34 0.67 -0.68 0.34 0 0 Z " fill="#96F6F8" transform="translate(422,41)"/>
<path d="M0 0 C6.32597793 -0.35807422 6.32597793 -0.35807422 9 1.0625 C10.58495594 4.13335213 9.68036707 6.72186775 9 10 C8.34 10 7.68 10 7 10 C6.67 10.99 6.34 11.98 6 13 C3.29120665 14.35439668 0.99066732 14.06501451 -2 14 C-3.25127906 10.45332822 -2.72285053 8.27746562 -1.5625 4.75 C-1.27503906 3.85796875 -0.98757813 2.9659375 -0.69140625 2.046875 C-0.46324219 1.37140625 -0.23507812 0.6959375 0 0 Z " fill="#20BEC4" transform="translate(332,81)"/>
<path d="M0 0 C6.0546875 -0.1953125 6.0546875 -0.1953125 8 0 C10 2 10 2 10.1171875 4.3125 C10.03726562 5.199375 9.95734375 6.08625 9.875 7 C9.81054688 7.886875 9.74609375 8.77375 9.6796875 9.6875 C9 12 9 12 7.14453125 13.30078125 C4.34173391 14.21462592 1.92716424 14.19514428 -1 14 C-2 13 -2 13 -2.125 10.5 C-2 8 -2 8 -1 7 C-0.63239269 4.67182036 -0.29758419 2.3381615 0 0 Z " fill="#347880" transform="translate(268,81)"/>
<path d="M0 0 C5.625 -0.25 5.625 -0.25 9 2 C10.1875 4.125 10.1875 4.125 11 6 C11.66 4.02 12.32 2.04 13 0 C14.98 0 16.96 0 19 0 C19.66 1.32 20.32 2.64 21 4 C18.525 3.505 18.525 3.505 16 3 C15.01 5.64 14.02 8.28 13 11 C14.65 11 16.3 11 18 11 C14.77208445 13.1519437 13.71599191 13.20086443 10 13 C10 12.01 10 11.02 10 10 C9.113125 10.66 8.22625 11.32 7.3125 12 C2.68159204 14.7960199 2.68159204 14.7960199 -1 14 C-3.65315971 11.62130509 -3.98103345 10.32875347 -4.1875 6.75 C-4.125625 5.8425 -4.06375 4.935 -4 4 C-3.34 3.67 -2.68 3.34 -2 3 C-1.67 5.31 -1.34 7.62 -1 10 C1.97 10.495 1.97 10.495 5 11 C5 8.03 5 5.06 5 2 C3.35 1.67 1.7 1.34 0 1 C0 0.67 0 0.34 0 0 Z " fill="#267A7D" transform="translate(158,81)"/>
<path d="M0 0 C5.61 0 11.22 0 17 0 C17 0.33 17 0.66 17 1 C15.02 1.33 13.04 1.66 11 2 C10.67 2.99 10.34 3.98 10 5 C11.65 5.33 13.3 5.66 15 6 C15 6.33 15 6.66 15 7 C13.02 7 11.04 7 9 7 C9 8.32 9 9.64 9 11 C10.98 11 12.96 11 15 11 C15 11.66 15 12.32 15 13 C12.36 13 9.72 13 7 13 C7.33 11.35 7.66 9.7 8 8 C5.36 8 2.72 8 0 8 C-0.33 9.65 -0.66 11.3 -1 13 C-1.66 13 -2.32 13 -3 13 C-2.68991116 11.39536551 -2.37683713 9.79130769 -2.0625 8.1875 C-1.88847656 7.29417969 -1.71445313 6.40085937 -1.53515625 5.48046875 C-1 3 -1 3 0 0 Z " fill="#A1F6F6" transform="translate(243,81)"/>
<path d="M0 0 C3.375 -0.125 3.375 -0.125 7 0 C7.66 0.66 8.32 1.32 9 2 C8.9765625 4.1640625 8.9765625 4.1640625 8.625 6.625 C8.45871094 7.85089844 8.45871094 7.85089844 8.2890625 9.1015625 C8.14597656 10.04128906 8.14597656 10.04128906 8 11 C4.12315913 12.19287411 1.08378077 13 -3 13 C-2.68991116 11.39536551 -2.37683713 9.79130769 -2.0625 8.1875 C-1.88847656 7.29417969 -1.71445313 6.40085937 -1.53515625 5.48046875 C-1 3 -1 3 0 0 Z " fill="#BCFDFD" transform="translate(117,81)"/>
<path d="M0 0 C0.66 0.33 1.32 0.66 2 1 C1.67 2.65 1.34 4.3 1 6 C1.99 6 2.98 6 4 6 C4.28875 5.38125 4.5775 4.7625 4.875 4.125 C6 2 6 2 8 0 C11 -0.3125 11 -0.3125 14 0 C14.66 0.99 15.32 1.98 16 3 C14.865625 2.979375 13.73125 2.95875 12.5625 2.9375 C9.18424326 2.58422523 9.18424326 2.58422523 8 4 C7.95907063 6.33297433 7.95758277 8.66705225 8 11 C9.65 11 11.3 11 13 11 C13 9.68 13 8.36 13 7 C12.01 6.67 11.02 6.34 10 6 C11.98 6 13.96 6 16 6 C15.125 12.875 15.125 12.875 14 14 C11.66702567 14.04092937 9.33294775 14.04241723 7 14 C7 13.34 7 12.68 7 12 C6.34 12 5.68 12 5 12 C4.67 10.35 4.34 8.7 4 7 C3.01 7 2.02 7 1 7 C1 8.98 1 10.96 1 13 C-0.32 13 -1.64 13 -3 13 C-2.17812739 8.61667943 -1.09845718 4.32059823 0 0 Z " fill="#336C72" transform="translate(197,81)"/>
<path d="M0 0 C0.99 0.66 1.98 1.32 3 2 C2.54240047 8.5508985 1.7899856 14.6753842 0 21 C-0.66 21 -1.32 21 -2 21 C-2.66 22.98 -3.32 24.96 -4 27 C-7.3 27 -10.6 27 -14 27 C-14 26.34 -14 25.68 -14 25 C-10.04 24.505 -10.04 24.505 -6 24 C-5.85377197 23.34402832 -5.70754395 22.68805664 -5.55688477 22.01220703 C-4.89478972 19.04919382 -4.22869581 16.08709377 -3.5625 13.125 C-3.33240234 12.09246094 -3.10230469 11.05992188 -2.86523438 9.99609375 C-2.64287109 9.00996094 -2.42050781 8.02382813 -2.19140625 7.0078125 C-1.98717041 6.09660645 -1.78293457 5.18540039 -1.57250977 4.24658203 C-1 2 -1 2 0 0 Z " fill="#C9FAFC" transform="translate(445,41)"/>
<path d="M0 0 C0.33 0 0.66 0 1 0 C1.02505615 0.8878418 1.0501123 1.77568359 1.07592773 2.69042969 C1.17121797 5.99296037 1.27044207 9.29532459 1.37231445 12.59765625 C1.41555318 14.02534388 1.45723585 15.45307954 1.49731445 16.88085938 C1.55528602 18.93634496 1.61890175 20.99159128 1.68359375 23.046875 C1.72025146 24.28276367 1.75690918 25.51865234 1.79467773 26.79199219 C1.95979819 29.37187658 2.2464387 31.54355106 3 34 C2.01 34 1.02 34 0 34 C-0.33 34.99 -0.66 35.98 -1 37 C-3.00503509 34.99496491 -2.25588663 30.99974556 -2.31640625 28.24609375 C-2.33718735 27.47064713 -2.35796844 26.6952005 -2.37937927 25.89625549 C-2.44495802 23.41009692 -2.50379799 20.92382955 -2.5625 18.4375 C-2.60567733 16.75584796 -2.64929136 15.07420706 -2.69335938 13.39257812 C-2.80064779 9.26183129 -2.90189132 5.13097464 -3 1 C-2.01 2.485 -2.01 2.485 -1 4 C-0.67 2.68 -0.34 1.36 0 0 Z " fill="#8BEDF0" transform="translate(89,38)"/>
<path d="M0 0 C0.33 0 0.66 0 1 0 C1 22.11 1 44.22 1 67 C-1.64 67 -4.28 67 -7 67 C-7.33 68.32 -7.66 69.64 -8 71 C-11.3 71 -14.6 71 -18 71 C-18.33 70.34 -18.66 69.68 -19 69 C-15.7 69 -12.4 69 -9 69 C-9 68.01 -9 67.02 -9 66 C-6.03 66 -3.06 66 0 66 C0 44.22 0 22.44 0 0 Z " fill="#55FFFF" transform="translate(101,38)"/>
<path d="M0 0 C3.63 0 7.26 0 11 0 C10.67 1.65 10.34 3.3 10 5 C12.64 5 15.28 5 18 5 C18.33 3.35 18.66 1.7 19 0 C20.45047396 2.90094791 19.45356803 4.55972596 18.5625 7.625 C18.13130859 9.12933594 18.13130859 9.12933594 17.69140625 10.6640625 C17.46324219 11.43492188 17.23507812 12.20578125 17 13 C16.4465236 10.92446352 16 9.15634036 16 7 C13.03 6.505 13.03 6.505 10 6 C9.34 8.31 8.68 10.62 8 13 C6.58312881 8.74938644 7.80679961 6.28148375 9 2 C8.01 2.33 7.02 2.66 6 3 C4.97299556 5.32891096 4.97299556 5.32891096 4.3125 8.0625 C4.06113281 8.98160156 3.80976563 9.90070313 3.55078125 10.84765625 C3.36902344 11.55792969 3.18726563 12.26820312 3 13 C2.01 13 1.02 13 0 13 C0.14168137 11.56208484 0.28851043 10.1246763 0.4375 8.6875 C0.51871094 7.88699219 0.59992188 7.08648437 0.68359375 6.26171875 C1 4 1 4 2 1 C1.34 0.67 0.68 0.34 0 0 Z " fill="#498587" transform="translate(385,81)"/>
<path d="M0 0 C1.32 0.33 2.64 0.66 4 1 C4 1.66 4 2.32 4 3 C4.66 3 5.32 3 6 3 C6.33 2.01 6.66 1.02 7 0 C7.99 0.33 8.98 0.66 10 1 C10 2.98 10 4.96 10 7 C9.01 6.01 8.02 5.02 7 4 C6.67 6.64 6.34 9.28 6 12 C5.34 12 4.68 12 4 12 C3.34 10.68 2.68 9.36 2 8 C1.34 9.65 0.68 11.3 0 13 C-0.66 13 -1.32 13 -2 13 C-1.85769192 11.58297487 -1.71099254 10.1663904 -1.5625 8.75 C-1.48128906 7.96109375 -1.40007812 7.1721875 -1.31640625 6.359375 C-1.02365007 4.17635361 -0.57935581 2.1226818 0 0 Z " fill="#85B1B4" transform="translate(183,81)"/>
<path d="M0 0 C2.375 0.75 2.375 0.75 3.375 1.75 C3.41563832 3.41617115 3.417721 5.08388095 3.375 6.75 C0.735 6.75 -1.905 6.75 -4.625 6.75 C-4.625 15.66 -4.625 24.57 -4.625 33.75 C-4.955 33.75 -5.285 33.75 -5.625 33.75 C-5.69918046 29.39009127 -5.75361544 25.03051721 -5.78979492 20.67016602 C-5.80487768 19.18702801 -5.82534689 17.70393456 -5.85131836 16.22094727 C-5.88772616 14.08859255 -5.90473073 11.95682765 -5.91796875 9.82421875 C-5.9336792 8.54119873 -5.94938965 7.25817871 -5.96557617 5.9362793 C-5.625 2.75 -5.625 2.75 -4.27075195 0.79223633 C-2.625 -0.25 -2.625 -0.25 0 0 Z " fill="#09FFFF" transform="translate(80.625,43.25)"/>
<path d="M0 0 C3 0.125 3 0.125 4 1.125 C4.23728814 7.65042373 4.23728814 7.65042373 3 10.125 C0.125 10.3125 0.125 10.3125 -3 10.125 C-5 7.125 -5 7.125 -4.6875 4 C-3.76852699 0.15702196 -3.76852699 0.15702196 0 0 Z " fill="#F5FEFE" transform="translate(160,81.875)"/>
<path d="M0 0 C0.66 0 1.32 0 2 0 C3.125 4.75 3.125 4.75 2 7 C-0.5625 7.625 -0.5625 7.625 -3 8 C-3.33 9.32 -3.66 10.64 -4 12 C-5.81242052 12.02687279 -7.62495233 12.04633715 -9.4375 12.0625 C-10.44683594 12.07410156 -11.45617187 12.08570312 -12.49609375 12.09765625 C-15 12 -15 12 -16 11 C-16.04080783 9.00041636 -16.04254356 6.99954746 -16 5 C-15.34 5 -14.68 5 -14 5 C-14 6.32 -14 7.64 -14 9 C-9.92878957 9.65925992 -9.92878957 9.65925992 -6 9 C-4.02195218 6.79404667 -2.65763961 4.55907951 -1.2265625 1.96875 C-0.82179688 1.3190625 -0.41703125 0.669375 0 0 Z " fill="#4DDEE6" transform="translate(363,83)"/>
<path d="M0 0 C0.99 0.495 0.99 0.495 2 1 C3.19148936 21.53191489 3.19148936 21.53191489 3 31 C2.01 31.33 1.02 31.66 0 32 C0 21.44 0 10.88 0 0 Z " fill="#3EFFFF" transform="translate(62,38)"/>
<path d="M0 0 C0.78375 0.04125 1.5675 0.0825 2.375 0.125 C3.21954356 3.50317425 3.48344919 5.79965243 2.375 9.125 C0.065 9.125 -2.245 9.125 -4.625 9.125 C-4.75 5.75 -4.75 5.75 -4.625 2.125 C-2.625 0.125 -2.625 0.125 0 0 Z " fill="#F0FAFA" transform="translate(308.625,82.875)"/>
<path d="M0 0 C1.32 0 2.64 0 4 0 C4 3.3 4 6.6 4 10 C4.99 9.67 5.98 9.34 7 9 C7.33 8.34 7.66 7.68 8 7 C9.32 7.33 10.64 7.66 12 8 C11.01 8 10.02 8 9 8 C8.67 9.65 8.34 11.3 8 13 C6.35 13.33 4.7 13.66 3 14 C1.56976822 9.32790951 0.59619955 4.86896303 0 0 Z " fill="#2EAEB0" transform="translate(364,81)"/>
<path d="M0 0 C0.33 0 0.66 0 1 0 C1.01458252 0.62567871 1.02916504 1.25135742 1.04418945 1.89599609 C1.11852804 4.72296402 1.21523234 7.54873208 1.3125 10.375 C1.33505859 11.35984375 1.35761719 12.3446875 1.38085938 13.359375 C1.41630859 14.30039062 1.45175781 15.24140625 1.48828125 16.2109375 C1.51446533 17.08024902 1.54064941 17.94956055 1.56762695 18.84521484 C1.81345218 21.38600027 1.81345218 21.38600027 5 23 C4.52112644 28.2676092 4.03685532 28.96314468 0 33 C0 22.11 0 11.22 0 0 Z " fill="#283A3C" transform="translate(65,39)"/>
<path d="M0 0 C0.33 1.32 0.66 2.64 1 4 C-1.31 3.67 -3.62 3.34 -6 3 C-6.66 5.64 -7.32 8.28 -8 11 C-5.03 10.34 -2.06 9.68 1 9 C-0.625 11.0625 -0.625 11.0625 -3 13 C-6.25 12.75 -6.25 12.75 -9 12 C-11.05645161 6.67741935 -11.05645161 6.67741935 -10.8125 3.75 C-8.62539958 -0.96067782 -4.44788182 -0.1678446 0 0 Z " fill="#2A696F" transform="translate(150,81)"/>
<path d="M0 0 C1.65 0 3.3 0 5 0 C4.835 0.9075 4.67 1.815 4.5 2.75 C3.89862854 6.11087503 3.89862854 6.11087503 4 10 C1.69 10 -0.62 10 -3 10 C-2.690625 9.0925 -2.38125 8.185 -2.0625 7.25 C-1.2727737 4.83436662 -0.57050703 2.47219715 0 0 Z " fill="#7AF3F9" transform="translate(270,82)"/>
<path d="M0 0 C0.33 0 0.66 0 1 0 C1.33 9.57 1.66 19.14 2 29 C2.33 29 2.66 29 3 29 C3 33.29 3 37.58 3 42 C2.01 41.67 1.02 41.34 0 41 C0 27.47 0 13.94 0 0 Z " fill="#D7FFFF" transform="translate(76,50)"/>
<path d="M0 0 C1.2375 0.1546875 1.2375 0.1546875 2.5 0.3125 C3.16 1.3025 3.82 2.2925 4.5 3.3125 C3.18 3.6425 1.86 3.9725 0.5 4.3125 C0.83 5.9625 1.16 7.6125 1.5 9.3125 C-0.15614657 9.69468767 -1.82457024 10.02645102 -3.5 10.3125 C-4.5 9.3125 -4.5 9.3125 -4.6875 5.875 C-4.47181063 1.77690188 -4.18091003 0.52261375 0 0 Z " fill="#E5FAFA" transform="translate(208.5,82.6875)"/>
<path d="M0 0 C1.67542976 0.28604898 3.34385343 0.61781233 5 1 C5.3125 3.8125 5.3125 3.8125 5 7 C2.625 8.9375 2.625 8.9375 0 10 C-0.66 9.67 -1.32 9.34 -2 9 C-1.125 1.125 -1.125 1.125 0 0 Z " fill="#F1FBFB" transform="translate(334,83)"/>
<path d="M0 0 C0.33 0 0.66 0 1 0 C1.33 3.96 1.66 7.92 2 12 C2.33 12 2.66 12 3 12 C3 18.93 3 25.86 3 33 C2.67 33 2.34 33 2 33 C1.67 31.35 1.34 29.7 1 28 C0.67 28 0.34 28 0 28 C0 18.76 0 9.52 0 0 Z " fill="#36E2F2" transform="translate(70,39)"/>
<path d="M0 0 C0.66 0.66 1.32 1.32 2 2 C-3.75 6.875 -3.75 6.875 -6 8 C-7.9453125 7.44140625 -7.9453125 7.44140625 -10.125 6.5625 C-10.84945312 6.27503906 -11.57390625 5.98757812 -12.3203125 5.69140625 C-12.87460938 5.46324219 -13.42890625 5.23507813 -14 5 C-13.67 3.68 -13.34 2.36 -13 1 C-7.24734982 1.91519435 -7.24734982 1.91519435 -4.8125 2.75 C-4.214375 2.8325 -3.61625 2.915 -3 3 C-1.22809091 1.64555699 -1.22809091 1.64555699 0 0 Z " fill="#7FFBFF" transform="translate(207,44)"/>
<path d="M0 0 C0.33 0 0.66 0 1 0 C1 5.28 1 10.56 1 16 C1.99 16 2.98 16 4 16 C3.6875 18.875 3.6875 18.875 3 22 C2.01 22.66 1.02 23.32 0 24 C-2.1519437 20.77208445 -2.20086443 19.71599191 -2 16 C-1.34 16 -0.68 16 0 16 C0 10.72 0 5.44 0 0 Z " fill="#0F1012" transform="translate(79,79)"/>
<path d="M0 0 C2.875 -0.125 2.875 -0.125 6 0 C8 2 8 2 8 6 C1.25 7.125 1.25 7.125 -1 6 C-0.67 4.02 -0.34 2.04 0 0 Z " fill="#B8FAFB" transform="translate(123,55)"/>
<path d="M0 0 C0.33 0 0.66 0 1 0 C1.04254356 1.99954746 1.04080783 4.00041636 1 6 C0 7 0 7 -2.13305664 7.11352539 C-3.04949951 7.10828857 -3.96594238 7.10305176 -4.91015625 7.09765625 C-5.89951172 7.09443359 -6.88886719 7.09121094 -7.90820312 7.08789062 C-8.94912109 7.07951172 -9.99003906 7.07113281 -11.0625 7.0625 C-12.10728516 7.05798828 -13.15207031 7.05347656 -14.22851562 7.04882812 C-16.8190666 7.03699913 -19.40950559 7.02051689 -22 7 C-22 6.34 -22 5.68 -22 5 C-15.07 5 -8.14 5 -1 5 C-0.67 3.35 -0.34 1.7 0 0 Z " fill="#36FCFF" transform="translate(346,61)"/>
<path d="M0 0 C0.33 0 0.66 0 1 0 C1.53451363 3.56058661 2.05018364 7.12365738 2.5625 10.6875 C2.71396484 11.69490234 2.86542969 12.70230469 3.02148438 13.74023438 C3.2293457 15.20493164 3.2293457 15.20493164 3.44140625 16.69921875 C3.57232666 17.59471436 3.70324707 18.49020996 3.83813477 19.4128418 C4.00865085 22.13827005 3.65156661 24.35834496 3 27 C0.36 27 -2.28 27 -5 27 C-5 26.34 -5 25.68 -5 25 C-2.69 25 -0.38 25 2 25 C1.855625 23.78183594 1.71125 22.56367187 1.5625 21.30859375 C1.37479204 19.68491986 1.1873037 18.06122057 1 16.4375 C0.90460938 15.63763672 0.80921875 14.83777344 0.7109375 14.01367188 C0.17285824 9.30547833 -0.10176703 4.73852735 0 0 Z " fill="#25F4FC" transform="translate(254,41)"/>
<path d="M0 0 C3.375 -0.125 3.375 -0.125 7 0 C7.66 0.66 8.32 1.32 9 2 C8.9765625 4.1640625 8.9765625 4.1640625 8.625 6.625 C8.45871094 7.85089844 8.45871094 7.85089844 8.2890625 9.1015625 C8.14597656 10.04128906 8.14597656 10.04128906 8 11 C4.12315913 12.19287411 1.08378077 13 -3 13 C-2.68991116 11.39536551 -2.37683713 9.79130769 -2.0625 8.1875 C-1.88847656 7.29417969 -1.71445313 6.40085937 -1.53515625 5.48046875 C-1 3 -1 3 0 0 Z M1 1 C0.34 4.3 -0.32 7.6 -1 11 C1.33294775 11.04241723 3.66702567 11.04092937 6 11 C7.19695276 10.02089415 7.19695276 10.02089415 7.1328125 8.1875 C7.13023438 7.465625 7.12765625 6.74375 7.125 6 C7.12757812 5.278125 7.13015625 4.55625 7.1328125 3.8125 C7.19695276 1.97910585 7.19695276 1.97910585 6 1 C4.35 1 2.7 1 1 1 Z " fill="#293B41" transform="translate(117,81)"/>
<path d="M0 0 C1.98 0.66 3.96 1.32 6 2 C5.125 6.875 5.125 6.875 4 8 C2.00041636 8.04080783 -0.00045254 8.04254356 -2 8 C-1.125 1.125 -1.125 1.125 0 0 Z " fill="#B0EEF0" transform="translate(220,45)"/>
<path d="M0 0 C1.98 0 3.96 0 6 0 C5.979375 1.093125 5.95875 2.18625 5.9375 3.3125 C5.81455548 6.94384191 5.81455548 6.94384191 7 10 C6.01 11.485 6.01 11.485 5 13 C0.59225513 4.738041 0.59225513 4.738041 0 0 Z " fill="#B6FAFC" transform="translate(72,93)"/>
<path d="M0 0 C0.75 1.6875 0.75 1.6875 1 4 C-0.78625245 6.95418674 -2.01160913 8.65272753 -5.3125 9.8125 C-8.55071747 10.03842215 -11.75511989 10.0636251 -15 10 C-15.33 9.34 -15.66 8.68 -16 8 C-12.7 8 -9.4 8 -6 8 C-6 6.68 -6 5.36 -6 4 C-5.38125 3.896875 -4.7625 3.79375 -4.125 3.6875 C-1.63473516 3.12474627 -1.63473516 3.12474627 0 0 Z " fill="#A2F8FE" transform="translate(84,99)"/>
<path d="M0 0 C2.31 0 4.62 0 7 0 C7 0.33 7 0.66 7 1 C5.02 1.33 3.04 1.66 1 2 C0.67 2.99 0.34 3.98 0 5 C1.65 5.33 3.3 5.66 5 6 C5 6.33 5 6.66 5 7 C3.02 7 1.04 7 -1 7 C-1 8.32 -1 9.64 -1 11 C0.98 11 2.96 11 5 11 C5 11.66 5 12.32 5 13 C2.36 13 -0.28 13 -3 13 C-3.38281159 7.76824163 -2.21854707 4.62197306 0 0 Z " fill="#142F3D" transform="translate(253,81)"/>
<path d="M0 0 C0.33 0 0.66 0 1 0 C1.08997924 5.12881696 0.93119789 9.9301448 0 15 C-1 16 -1 16 -3.28515625 16.09765625 C-4.65994141 16.08025391 -4.65994141 16.08025391 -6.0625 16.0625 C-6.98160156 16.05347656 -7.90070313 16.04445313 -8.84765625 16.03515625 C-9.55792969 16.02355469 -10.26820313 16.01195313 -11 16 C-11 15.34 -11 14.68 -11 14 C-8.36 13.67 -5.72 13.34 -3 13 C-2.01 8.71 -1.02 4.42 0 0 Z " fill="#43FAFD" transform="translate(442,52)"/>
<path d="M0 0 C2.31 0.66 4.62 1.32 7 2 C6.67 3.65 6.34 5.3 6 7 C1.2482602 6.56802365 -0.92000054 5.67230705 -4 2 C-2.68 2 -1.36 2 0 2 C0 1.34 0 0.68 0 0 Z " fill="#C8F8FB" transform="translate(190,55)"/>
<path d="M0 0 C3.96 0 7.92 0 12 0 C12 1.65 12 3.3 12 5 C11.67 4.34 11.34 3.68 11 3 C7.7 3 4.4 3 1 3 C1 3.66 1 4.32 1 5 C2.32 5.66 3.64 6.32 5 7 C3.02 7 1.04 7 -1 7 C-0.67 4.69 -0.34 2.38 0 0 Z " fill="#128289" transform="translate(282,81)"/>
<path d="M0 0 C2.375 -0.125 2.375 -0.125 5 0 C7.40346379 2.40346379 7.32083747 3.13900195 7.375 6.4375 C7.27301905 10.66631005 7.27301905 10.66631005 5.3125 13.0625 C2.69914404 14.12196863 0.79491785 14.23290982 -2 14 C-2.33 12.68 -2.66 11.36 -3 10 C-0.36 10.33 2.28 10.66 5 11 C5 8.36 5 5.72 5 3 C2.525 2.01 2.525 2.01 0 1 C0 0.67 0 0.34 0 0 Z " fill="#387072" transform="translate(306,81)"/>
<path d="M0 0 C0.33 0 0.66 0 1 0 C1.04898438 0.99902344 1.09796875 1.99804688 1.1484375 3.02734375 C1.22320312 4.31769531 1.29796875 5.60804687 1.375 6.9375 C1.44460937 8.22527344 1.51421875 9.51304688 1.5859375 10.83984375 C1.72257812 11.88269531 1.85921875 12.92554687 2 14 C2.66 14.33 3.32 14.66 4 15 C3.67 15.99 3.34 16.98 3 18 C3 17.34 3 16.68 3 16 C1.02 16 -0.96 16 -3 16 C-3 16.66 -3 17.32 -3 18 C-3.66 18 -4.32 18 -5 18 C-5 15.69 -5 13.38 -5 11 C-4.01 11 -3.02 11 -2 11 C-2 12.32 -2 13.64 -2 15 C-1.34 15 -0.68 15 0 15 C0 10.05 0 5.1 0 0 Z " fill="#1DFEFF" transform="translate(75,77)"/>
<path d="M0 0 C2.97 0.495 2.97 0.495 6 1 C6.33 1.99 6.66 2.98 7 4 C5 6 5 6 1.875 6.125 C0.451875 6.063125 0.451875 6.063125 -1 6 C-1.33 5.34 -1.66 4.68 -2 4 C-1.0625 1.875 -1.0625 1.875 0 0 Z " fill="#ADF6F8" transform="translate(126,45)"/>
<path d="M0 0 C0.99 0 1.98 0 3 0 C3.38281159 5.23175837 2.21854707 8.37802694 0 13 C-0.66 13 -1.32 13 -2 13 C-1.85769192 11.58297487 -1.71099254 10.1663904 -1.5625 8.75 C-1.48128906 7.96109375 -1.40007812 7.1721875 -1.31640625 6.359375 C-1.02365007 4.17635361 -0.57935581 2.1226818 0 0 Z " fill="#3EB3B8" transform="translate(183,81)"/>
<path d="M0 0 C2.97 0 5.94 0 9 0 C9 0.66 9 1.32 9 2 C8.030625 2.12375 7.06125 2.2475 6.0625 2.375 C5.051875 2.58125 4.04125 2.7875 3 3 C2.67 3.66 2.34 4.32 2 5 C3.32 5.66 4.64 6.32 6 7 C3.69 7 1.38 7 -1 7 C-0.67 4.69 -0.34 2.38 0 0 Z " fill="#15838C" transform="translate(130,81)"/>
<path d="M0 0 C2.64 0 5.28 0 8 0 C8 0.66 8 1.32 8 2 C7.030625 2.12375 6.06125 2.2475 5.0625 2.375 C4.051875 2.58125 3.04125 2.7875 2 3 C1.67 3.66 1.34 4.32 1 5 C2.32 5 3.64 5 5 5 C5 5.66 5 6.32 5 7 C3.02 7 1.04 7 -1 7 C-1.33 7.66 -1.66 8.32 -2 9 C-1.34 6.03 -0.68 3.06 0 0 Z " fill="#1C7F89" transform="translate(243,81)"/>
<path d="M0 0 C0.66 0 1.32 0 2 0 C1.34 3.96 0.68 7.92 0 12 C-0.99 12.33 -1.98 12.66 -3 13 C-2.52060632 8.28596212 -2.03165952 4.33420699 0 0 Z " fill="#49A5A8" transform="translate(237,81)"/>
<path d="M0 0 C0.66 0.99 1.32 1.98 2 3 C0.865625 2.979375 -0.26875 2.95875 -1.4375 2.9375 C-4.81575674 2.58422523 -4.81575674 2.58422523 -6 4 C-6.36760731 6.32817964 -6.70241581 8.6618385 -7 11 C-9.41703243 8.58296757 -9.83849795 7.39154295 -10 4 C-7.24963797 -0.07053581 -4.78342419 -0.72791238 0 0 Z " fill="#23A4A9" transform="translate(211,81)"/>
<path d="M0 0 C2.29013653 3.4352048 2.17842973 4.985331 2 9 C0.35 9.33 -1.3 9.66 -3 10 C-3.33 9.34 -3.66 8.68 -4 8 C-3.22265625 6.0546875 -3.22265625 6.0546875 -2.0625 3.875 C-1.49208984 2.78832031 -1.49208984 2.78832031 -0.91015625 1.6796875 C-0.60980469 1.12539063 -0.30945313 0.57109375 0 0 Z " fill="#99EEEF" transform="translate(247,48)"/>
<path d="M0 0 C1.98 0 3.96 0 6 0 C5.125 6.875 5.125 6.875 4 8 C1.66702567 8.04092937 -0.66705225 8.04241723 -3 8 C0.75 5 0.75 5 3 5 C3 3.68 3 2.36 3 1 C2.01 0.67 1.02 0.34 0 0 Z " fill="#149398" transform="translate(207,87)"/>
<path d="M0 0 C0.33 0 0.66 0 1 0 C1 2.31 1 4.62 1 7 C-0.26457031 7.05607422 -0.26457031 7.05607422 -1.5546875 7.11328125 C-3.19824219 7.21189453 -3.19824219 7.21189453 -4.875 7.3125 C-6.51082031 7.39951172 -6.51082031 7.39951172 -8.1796875 7.48828125 C-9.57574219 7.74158203 -9.57574219 7.74158203 -11 8 C-11.66 8.99 -12.32 9.98 -13 11 C-13.042721 9.33388095 -13.04063832 7.66617115 -13 6 C-12.67 5.67 -12.34 5.34 -12 5 C-10.14227838 5.08984301 -8.28752015 5.24611861 -6.4375 5.4375 C-4.91962891 5.59025391 -4.91962891 5.59025391 -3.37109375 5.74609375 C-2.19740234 5.87177734 -2.19740234 5.87177734 -1 6 C-0.67 4.02 -0.34 2.04 0 0 Z " fill="#19ECF5" transform="translate(346,50)"/>
<path d="M0 0 C2.97 0 5.94 0 9 0 C9 0.33 9 0.66 9 1 C6.69 1 4.38 1 2 1 C1.67 2.32 1.34 3.64 1 5 C-2.3 5 -5.6 5 -9 5 C-9.33 4.34 -9.66 3.68 -10 3 C-6.7 3 -3.4 3 0 3 C0 2.01 0 1.02 0 0 Z " fill="#28FAFF" transform="translate(92,104)"/>
<path d="M0 0 C1.65 0 3.3 0 5 0 C5.5625 1.9375 5.5625 1.9375 6 4 C5 5 5 5 1.9375 5.0625 C0.4834375 5.0315625 0.4834375 5.0315625 -1 5 C-0.67 3.35 -0.34 1.7 0 0 Z " fill="#9EFCFC" transform="translate(374,82)"/>
<path d="M0 0 C2.64 0 5.28 0 8 0 C8 0.66 8 1.32 8 2 C6.02 2.33 4.04 2.66 2 3 C2 3.66 2 4.32 2 5 C2.99 5.66 3.98 6.32 5 7 C3.02 7 1.04 7 -1 7 C-0.67 4.69 -0.34 2.38 0 0 Z " fill="#0B7D87" transform="translate(350,81)"/>
<path d="M0 0 C1.98 0 3.96 0 6 0 C6.66 1.32 7.32 2.64 8 4 C6.35 3.67 4.7 3.34 3 3 C2.01 5.64 1.02 8.28 0 11 C-1.04973814 6.80104745 -0.72795155 4.20594226 0 0 Z " fill="#0F9C9E" transform="translate(171,81)"/>
<path d="M0 0 C2.31 0 4.62 0 7 0 C7 1.32 7 2.64 7 4 C1.25 4.125 1.25 4.125 -1 3 C-0.67 2.01 -0.34 1.02 0 0 Z " fill="#F4F8F8" transform="translate(133,83)"/>
<path d="M0 0 C2.96404505 2.80804268 5.44499019 5.18315774 7 9 C5.25 8.9375 5.25 8.9375 3 8 C1.40498463 5.75835678 0.25456982 3.46433357 -1 1 C-0.67 0.67 -0.34 0.34 0 0 Z " fill="#59FBFC" transform="translate(92,71)"/>
<path d="M0 0 C0.98120464 3.05263664 0.98120464 4.94736336 0 8 C1.98 8 3.96 8 6 8 C2.77208445 10.1519437 1.71599191 10.20086443 -2 10 C-2.17942163 6.05272412 -2.09350689 3.4019487 0 0 Z " fill="#244E5D" transform="translate(170,84)"/>
<path d="M0 0 C0.66 0 1.32 0 2 0 C2 1.32 2 2.64 2 4 C3.98 4 5.96 4 8 4 C8 4.66 8 5.32 8 6 C5.36 6 2.72 6 0 6 C0 4.02 0 2.04 0 0 Z " fill="#44697C" transform="translate(347,88)"/>
<path d="M0 0 C0.66 0 1.32 0 2 0 C1.34 3.96 0.68 7.92 0 12 C-0.66 12 -1.32 12 -2 12 C-1 3.42857143 -1 3.42857143 0 0 Z " fill="#5EFEFF" transform="translate(404,52)"/>
<path d="M0 0 C0.33 0 0.66 0 1 0 C1 4.29 1 8.58 1 13 C0.01 12.67 -0.98 12.34 -2 12 C-2 10.02 -2 8.04 -2 6 C-1.67 6 -1.34 6 -1 6 C-0.67 4.02 -0.34 2.04 0 0 Z " fill="#BDFFFF" transform="translate(78,79)"/>
<path d="M0 0 C0.66 0 1.32 0 2 0 C2.33 1.65 2.66 3.3 3 5 C1.02 5.66 -0.96 6.32 -3 7 C-1.125 2.25 -1.125 2.25 0 0 Z " fill="#88CDCD" transform="translate(363,83)"/>
<path d="M0 0 C0.33 1.32 0.66 2.64 1 4 C3.31 4 5.62 4 8 4 C7.67 4.66 7.34 5.32 7 6 C4.36 6 1.72 6 -1 6 C-0.67 4.02 -0.34 2.04 0 0 Z " fill="#2B5260" transform="translate(280,88)"/>
<path d="M0 0 C1.65 0.33 3.3 0.66 5 1 C4.67 1.99 4.34 2.98 4 4 C2.35 4 0.7 4 -1 4 C-0.67 2.68 -0.34 1.36 0 0 Z " fill="#E7FCFC" transform="translate(270,88)"/>
<path d="M0 0 C0.66 0 1.32 0 2 0 C0.515 6.435 0.515 6.435 -1 13 C-1.66 12.67 -2.32 12.34 -3 12 C-3 11.01 -3 10.02 -3 9 C-2.34 9 -1.68 9 -1 9 C-0.67 6.03 -0.34 3.06 0 0 Z " fill="#242A2F" transform="translate(325,81)"/>
<path d="M0 0 C0.33 0 0.66 0 1 0 C1 3.63 1 7.26 1 11 C0.34 11 -0.32 11 -1 11 C-2.0257259 6.58937864 -2.03684712 4.07369424 0 0 Z " fill="#8BFFFF" transform="translate(71,64)"/>
<path d="M0 0 C1.65 0.33 3.3 0.66 5 1 C5 1.99 5 2.98 5 4 C2.69 4 0.38 4 -2 4 C-1.34 2.68 -0.68 1.36 0 0 Z " fill="#C9FAFE" transform="translate(79,44)"/>
<path d="M0 0 C1.4540625 0.0309375 1.4540625 0.0309375 2.9375 0.0625 C2.31875 0.248125 1.7 0.43375 1.0625 0.625 C-2.11852866 2.77687233 -2.25701947 5.43783763 -3.0625 9.0625 C-3.7225 8.4025 -4.3825 7.7425 -5.0625 7.0625 C-4.35089733 0.08879382 -4.35089733 0.08879382 0 0 Z " fill="#25E7EB" transform="translate(160.0625,81.9375)"/>
<path d="M0 0 C2.33294775 -0.04241723 4.66702567 -0.04092937 7 0 C8 1 8 1 8.09765625 2.84765625 C8.04882812 5.92382812 8.04882812 5.92382812 8 9 C7.67 9 7.34 9 7 9 C6.34 6.69 5.68 4.38 5 2 C3.35 2 1.7 2 0 2 C0 1.34 0 0.68 0 0 Z " fill="#0C1922" transform="translate(332,81)"/>
<path d="M0 0 C0.33 0 0.66 0 1 0 C1.19294408 4.82360189 0.75747614 8.49646738 -1 13 C-1.33 13 -1.66 13 -2 13 C-2.19294408 8.17639811 -1.75747614 4.50353262 0 0 Z " fill="#A9AAAB" transform="translate(142,53)"/>
<path d="M0 0 C0 0.66 0 1.32 0 2 C-2.64 2 -5.28 2 -8 2 C-8 1.34 -8 0.68 -8 0 C-5.13822943 -1.43088528 -3.06624227 -0.59991697 0 0 Z " fill="#22A2A2" transform="translate(84,48)"/>
<path d="M0 0 C0.66 0 1.32 0 2 0 C3.125 3.75 3.125 3.75 2 6 C1.01 6 0.02 6 -1 6 C-1.042721 4.33388095 -1.04063832 2.66617115 -1 1 C-0.67 0.67 -0.34 0.34 0 0 Z " fill="#A3FCFC" transform="translate(199,81)"/>
<path d="M0 0 C1.32 0.66 2.64 1.32 4 2 C4 2.99 4 3.98 4 5 C2.68 5.33 1.36 5.66 0 6 C-1.125 2.25 -1.125 2.25 0 0 Z " fill="#66E5EB" transform="translate(93,62)"/>
<path d="M0 0 C2 3 2 3 2 7 C1.01 7 0.02 7 -1 7 C-1.04254356 5.00045254 -1.04080783 2.99958364 -1 1 C-0.67 0.67 -0.34 0.34 0 0 Z " fill="#6DB0B4" transform="translate(316,87)"/>
</svg>
